<svg version="1.1" xmlns="http://www.w3.org/2000/svg" xmlns:xlink="http://www.w3.org/1999/xlink" width="215.51208" height="128.34154" viewBox="0,0,215.51208,128.34154"><g transform="translate(-132.24396,-115.82923)"><g data-paper-data="{&quot;isPaintingLayer&quot;:true}" fill="#00ff00" fill-rule="nonzero" stroke="none" stroke-width="0.5" stroke-linecap="butt" stroke-linejoin="miter" stroke-miterlimit="10" stroke-dasharray="" stroke-dashoffset="0" style="mix-blend-mode: normal"><path d="M156.97628,133.10539c0.02459,0.07965 0.03573,0.12461 0.03573,0.12461c0.35914,1.44872 0.78308,2.8695 1.23618,4.2772c0.09378,-0.09159 0.19178,-0.17927 0.29379,-0.26272l2.28778,-1.95314c0.49221,-0.73965 2.08226,-0.82273 2.04419,-1.71037c-0.13731,-3.20142 -4.19052,-0.89879 -5.76737,-0.50788zM161.80957,148.73457c0.40183,1.62836 1.63135,4.72645 0.93355,6.69314c0.03369,-0.03293 0.06643,-0.05961 0.09724,-0.07778c0.19538,-0.11524 2.12662,-1.32123 2.35656,-1.74805c1.40795,-2.61334 2.19538,-7.26262 -1.54442,-8.17912l-2.51341,-0.19833c-0.11058,-0.00613 -0.22046,-0.01634 -0.32945,-0.03054c0.36484,1.16774 0.70491,2.34515 0.99992,3.54068zM171.83392,134.42902c-0.03188,0.46191 -0.69375,2.33892 -1.64545,4.12481c5.36696,3.97941 6.32879,11.29772 3.9469,17.23492c2.20098,-0.38724 4.38893,-0.65014 6.51946,-0.79503c-3.84782,-7.9138 -4.99962,-20.78961 -5.39002,-22.31319c-0.14584,-0.56916 -1.99515,-5.38044 -2.0011,-5.37916c-0.99349,0.21101 -1.9722,0.42723 -2.93893,0.64903c1.10945,1.80498 1.67963,4.00865 1.50913,6.47862zM198.12741,158.9558c11.77833,8.415 15.73501,30.21258 10.2046,43.29613c-4.24142,10.03415 -14.8194,19.38742 -24.93119,22.11884l-0.68092,0.1688c0,0 -3.25152,0.80606 -5.23386,-1.44123l0.00003,-0.00002c-13.15123,-1.09395 -24.40842,-8.3533 -30.28421,-20.97088c-2.80456,-6.02245 -6.74494,-11.78446 -5.84783,-18.89701c0.35361,-2.80355 1.10857,-5.3754 2.19286,-7.72586c-2.20259,-2.91107 -3.01283,-7.52997 -4.17901,-10.2257c-4.15317,-9.60034 -11.9211,-27.65658 -3.04645,-36.49623c7.7728,-7.74215 30.10335,-11.00764 38.28794,-12.77712c2.5297,-0.54692 3.44898,0.22183 5.32624,1.7095c5.8269,4.61764 8.94805,32.21206 10.46386,31.56548c11.80628,-5.03614 23.83824,-10.07326 35.95507,-14.34943c3.52039,-1.24238 9.55532,-3.81207 11.08467,2.35707c1.38266,5.57746 -4.08884,6.55367 -7.57236,7.69211c-10.74836,3.51262 -21.3302,8.54686 -31.80176,12.76914c-0.33134,0.1336 -0.67993,0.28502 -1.04271,0.44803c0.35351,0.23186 0.72095,0.48396 1.10505,0.75838zM155.80902,162.40919c-0.19145,-0.18114 -0.37794,-0.37424 -0.55901,-0.57971c-1.80261,-2.04554 -1.16249,-5.97117 -1.58207,-8.59717c-0.97363,-6.09359 -3.90366,-11.83503 -5.3915,-17.83674c0,0 -0.13717,-0.55333 -0.11692,-1.31492c-2.7828,0.49574 -5.69378,1.06421 -5.19478,3.1703c2.21956,9.36796 3.15072,20.24654 7.57934,29.01342c1.61416,-1.42826 3.38339,-2.71128 5.26494,-3.85517zM185.62446,212.38671c2.05642,-1.0128 3.88997,-2.34706 5.49412,-3.92038c6.90757,-4.92071 10.47419,-13.72954 8.30973,-22.46068c-0.08812,-0.35545 -0.1847,-0.70657 -0.28945,-1.05321c-0.03032,-0.31378 -0.06576,-0.6261 -0.10636,-0.93679c-1.33598,-10.22264 -4.01584,-17.38687 -15.23651,-18.535c-11.90942,-0.10053 -29.63354,5.13435 -31.89064,19.12169c-0.71198,4.41217 3.35999,9.48283 4.97835,13.11207c4.87724,10.93731 15.88372,16.23982 27.84312,14.68498c0,0 0.35752,-0.04261 0.89764,-0.01267z"/><path d="M161.81452,183.4741c-0.66445,-2.68029 0.96972,-5.39174 3.65001,-6.05619c2.68029,-0.66445 5.39174,0.96972 6.05619,3.65001c0.66445,2.68029 -0.96972,5.39174 -3.65001,6.05619c-2.68029,0.66445 -5.39174,-0.96972 -6.05619,-3.65001z"/><path d="M177.86219,178.99853c-0.66445,-2.68029 0.96972,-5.39174 3.65001,-6.05619c2.68029,-0.66445 5.39174,0.96972 6.05619,3.65001c0.66445,2.68029 -0.96972,5.39174 -3.65001,6.05619c-2.68029,0.66445 -5.39174,-0.96972 -6.05619,-3.65001z"/><path d="M178.94913,197.44857c2.75087,-1.12411 2.91888,-3.80355 6.00712,-4.75378c7.97201,-2.45295 6.27846,8.50681 1.54347,12.04344c-3.99245,2.98203 -10.03873,3.68012 -14.54961,1.49873c-0.40234,-0.19457 -1.29372,-0.69561 -2.24937,-1.37759c-0.71595,-0.35112 -1.34559,-0.87124 -1.82619,-1.52257c-1.3753,-1.38152 -2.20997,-3.0173 -0.76756,-4.39414c0.4896,-1.63969 1.80879,-2.98527 3.59,-3.42683c1.85059,-0.45877 3.71605,0.17825 4.91234,1.49881c1.48016,0.38301 2.84427,0.63645 3.3398,0.43395z"/><path d="M219.76344,173.63755c0,0.48546 -0.07981,0.95229 -0.22703,1.38806l-0.01009,0.12616l-0.05025,0.04099c-0.62507,1.62555 -2.20134,2.7792 -4.04705,2.7792c-1.33374,0 -2.52678,-0.6024 -3.32188,-1.54997l-0.06284,-0.02322l-0.05204,-0.11969c-0.43935,-0.57077 -0.7397,-1.25407 -0.85039,-1.99924l-0.15633,-0.938l-0.15452,-0.61808v-0.17666l-0.07044,-0.16201l-0.1965,-1.17902l0.02889,-0.36112l-0.08786,-0.35146v-5.1091l0.08786,-0.35146l-0.02889,-0.36112l0.1965,-1.17902l0.13708,-0.31529l0.02637,-0.34279l0.1965,-0.58951l0.16749,-0.2632l0.06768,-0.30455l0.05875,-0.11749l0.00966,-0.02898l-0.01281,-0.04697l0.06405,-0.10675l0.03819,-0.11458l0.53469,-0.84023l0.5124,-0.854l0.03595,-0.03595l0.0012,-0.00863l0.02674,-0.01931l0.02151,-0.02151l0.06684,-0.10503l0.04774,-0.00955l0.19303,-0.19303l0.74798,-0.44879l0.70715,-0.51072l0.43215,-0.17286l0.02828,-0.01697l0.00841,0.00229l0.09466,-0.03786l0.214,-0.14267l0.54521,-0.19472l0.27342,-0.174l0.00797,-0.01395l0.02298,-0.00575l0.18405,-0.11713l0.58951,-0.1965l0.4366,-0.03358l0.04402,-0.01572l0.02138,0.01069l0.19271,-0.01482l0.20155,-0.05039l0.10802,-0.05401l0.97221,-0.21605l0.96619,-0.24155h0.12077l0.12153,-0.02701l0.04051,0.02701l3.25426,0l0.82957,0.20739l0.31976,-0.08721l0.47757,0.28654l0.54031,0.13508l0.16444,0.28777l0.73325,0.43995l0.28865,0.28865l0.1057,0.05285l0.06628,-0.00457l0.82968,0.75426l0.2568,0.22011l0.49142,-0.85999l2.16721,-0.5418l10.32839,0l0.04051,-0.02701l0.12153,0.02701h0.12077l0.78601,0.1965l0.78601,0l0.51766,0.12941l0.53359,0l0.24626,0.06156l0.03222,-0.02148l0.12153,0.02701h0.12077l0.78601,0.1965h0.1102l0.04051,-0.02701l0.12153,0.02701h0.12077l0.96619,0.24155l0.97221,0.21605l0.10802,0.05401l0.12077,0.03019l0.02415,0.04227l0.05157,0.02579l0.59456,0.14864l0.35769,0.02751l0.53838,0l0.67596,0.16899l0.35769,0.02751h0.34188l0.67596,0.16899l0.69471,0.05344l1.17902,0.39301l0.2632,0.16749l0.30455,0.06768l0.78601,0.39301l0.52902,0.45344l0.29846,0.17908l0.05013,0.00278l0.04816,0.05619l0.20072,0.12043l0.39301,0.39301l0.12043,0.20072l0.05619,0.04816l0.00164,0.02948l0.14297,0.12255l0.21591,0.012l0.55916,0.65235l0.65235,0.55916l0.00731,0.13155l0.01258,0.01258l0.16198,0.26996l0.06044,0.07051l0.09066,0.18131l0.19933,0.33222l0.08996,0.14137l0.18365,0.18365l0.29476,0.49126l0.29128,0.29128l0.04774,0.00955l0.06684,0.10503l0.0854,0.0854l0.5124,0.854l0.53469,0.84023l0.03819,0.11458l0.06405,0.10675l-0.00424,0.01555l0.03393,0.03393l0.08972,0.14954l0.13932,0.04644l0.41796,0.88237l0.50233,0.83721l-0.03864,0.14168l0.07465,0.1576l0.08267,0.41333l0.13342,0.26684l0.14046,0.63206l0.25817,0.59378l0.1965,1.17902l-0.00413,0.05163l0.01954,0.04797l0.1965,1.37553l-0.0321,0.31032l0.07567,0.30266l0,1.73235l0.11233,0.56166l-0.02053,0.43122l0.10471,0.41882v0.90917l0.16303,1.30426l-0.03296,0.2719l0.06643,0.26572v3.53707l-0.16899,0.67596l-0.05344,0.69471l-0.39301,1.17902l-0.43221,0.67918l-0.34999,0.72498l-1.96504,2.35804l-0.29647,0.21665l-0.21252,0.29945l-1.37553,1.17902l-0.29479,0.14739l-0.22878,0.23725l-1.4159,0.88494l-0.63873,0.47904l-0.20971,0.0883l-0.09627,0.09627l0.19788,0.46172l0.97461,1.62435l1.41048,2.11572l0.66851,0.83564l0.19212,0.41918l0.30009,0.3501l0.41472,0.82945l0.22015,0.29354l0.05205,0.01924l0.05189,0.11935l0.03092,0.04122l0.39848,0.94638l0.40943,0.94169l0.00847,0.05083l0.0505,0.11995l-0.02202,0.05093l0.1192,0.71518l0.29969,1.04893l0.75623,2.2687l0.02101,0.27309l0.11725,0.24753l0.02834,0.14171l0.31038,0.46558l0.13487,0.37763l0.24264,0.31926l0.3906,0.9114l0.00757,0.00432l0.008,0.03199l0.18334,0.4278l0.1389,0.86116l0.21156,0.84625v0.46544l0.00525,0.03256l-0.00525,0.00695v0.67407l-0.0486,0.19441l0.0308,0.19801l-0.1965,2.16154l-0.05433,0.15574l0.01315,0.16442l-0.39301,2.35804l-0.25817,0.59378l-0.14046,0.63206l-0.98252,1.96504l-0.30009,0.3501l-0.19212,0.41918l-0.71222,0.89028l-0.91386,1.2794l-0.45619,0.38861l-0.36318,0.47668l-0.79506,0.63605l-0.81277,0.81277l-0.49644,0.29786l-0.41799,0.40057l-1.37553,0.78601l-0.33882,0.09529l-0.28974,0.19982l-1.24589,0.46721l-1.0731,0.6132l-0.11856,0.03334l-0.09351,0.08015l-1.57203,0.78601l-0.17954,0.0399l-0.1491,0.10769l-0.66005,0.26402l-0.68471,0.41082l-0.38061,0.11584l-0.32751,0.22587l-1.57203,0.58951l-0.47043,0.05376l-0.4385,0.17865l-1.37553,0.1965l-0.11315,-0.01171l-0.10741,0.03747l-2.1421,0.19474l-1.94561,0.19456l-0.01989,-0.00291l-0.01898,0.00662l-2.16154,0.1965l-0.19801,-0.0308l-0.19441,0.0486h-4.09457l-0.4547,0.27282l-0.31976,-0.08721l-0.82957,0.20739h-1.17902l-2.16721,-0.5418l-0.59106,-1.03435l-1.03435,-0.59106l-0.5418,-2.16721v-4.2869l-0.11233,-0.56166l0.02053,-0.43122l-0.10471,-0.41882v-0.84193l-0.06709,-0.26836v-0.53359l-0.12941,-0.51766v-0.87098l-0.13593,-0.95149l-0.17291,-0.86455l0.02053,-0.43122l-0.10471,-0.41882v-5.89511l0.06643,-0.26572l-0.03296,-0.2719l0.16303,-1.30426v-1.10567l0.08786,-0.35146l-0.02889,-0.36112l0.13753,-0.82518l0,-20.66706l-0.35424,-3.89669l-0.3476,-1.73799l0.00186,-0.03906l-0.01612,-0.03563l-0.39301,-2.16154l0.00998,-0.15299l-0.05338,-0.14372l-0.17063,-1.53565l-0.34218,-1.5398l0.01256,-0.47718l-0.11577,-0.46309v-1.94536l-0.17499,-1.74993l0.03187,-0.21777l-0.05338,-0.21352v-2.537l-0.22624,-0.79183l-0.00831,-0.24937l-0.09948,-0.22881l-0.06121,-0.36725l-0.1661,-0.27683l-0.04948,-0.16259l-0.1106,-0.12904l-0.66878,-1.33756h-1.07728l-0.68156,0.15146l-0.72308,0.18077l-0.03528,0.21167v4.39164l0.10907,0.65443l0.15452,0.61808v0.17666l0.07044,0.16201l0.18308,1.09847c0.04755,0.25713 0.0724,0.52222 0.0724,0.79312zM231.58339,166.94469l0.02014,0.60424l0.14663,0.58652v2.92788l0.17499,1.74993l-0.03187,0.21777l0.05338,0.21352v1.68574l0.28979,1.30406l-0.00627,0.23822l0.08297,0.22339l0.17994,1.61943l0.35937,1.97653l0.38555,1.92776l-0.0112,0.23525l0.07757,0.22238l0.29852,3.28373l0.68988,0.06272l0.02993,0.01044l0.03139,-0.00443l3.64205,0.38337l3.05221,0.19076l0.28305,0.08986l0.29663,-0.01413l1.54418,0.30884h1.14284l0.67596,0.16899l0.69471,0.05344l0.33351,0.11117l0.71791,0.14358l0.24753,0.11725l0.04724,0.00363l0.03421,-0.00855h1.0168l1.93526,-0.32254l0.17778,-0.03556l0.147,-0.0882l0.60714,-0.45535l0.17307,-0.07287l0.13035,-0.13517l1.29579,-0.80987l0.85205,-0.73033l1.12058,-1.34469v-2.40535l-0.16303,-1.30426l0.03296,-0.2719l-0.06643,-0.26572l0,-0.74983l-0.11233,-0.56166l0.02053,-0.43122l-0.10471,-0.41882l0,-1.8535l-0.14581,-1.0207l-0.08107,-0.48643l-0.10153,-0.20307l-0.12559,-0.56515l-0.1402,-0.29598l-0.05335,-0.0485l-0.39301,-0.58951l-0.09212,-0.25794l-0.17825,-0.20796l-0.1965,-0.39301l-0.03378,-0.15203l-0.23506,-0.39177l-0.29128,-0.29128l-0.04774,-0.00955l-0.06684,-0.10503l-0.0854,-0.0854l-0.5124,-0.854l-0.1906,-0.29952l-0.35731,-0.2382l-0.06634,-0.00369l-0.71259,-0.83136l-0.12232,-0.04077h-0.08264l-0.67596,-0.16899l-0.35769,-0.02751h-0.53838l-0.67596,-0.16899l-0.35769,-0.02751h-0.25557l-0.04051,0.02701l-0.12153,-0.02701h-0.12077l-0.96619,-0.24155l-0.97221,-0.21605l-0.10802,-0.05401l-0.12077,-0.03019l-0.02415,-0.04227l-0.24808,-0.12404l-0.31161,-0.0779h-0.39301l-0.51766,-0.12941h-0.53359l-0.26836,-0.06709l-0.36262,0l-0.04051,0.02701l-0.12153,-0.02701h-0.12077l-0.78601,-0.1965h-9.35645zM233.7152,208.61521l-0.08786,0.35146l0.02889,0.36112l-0.13753,0.82518v1.0168l-0.06643,0.26572l0.03296,0.2719l-0.16303,1.30426l0,5.19607l0.11233,0.56166l-0.00586,0.12302l0.04647,0.11405l0.1965,1.37553l-0.0321,0.31032l0.07567,0.30266v0.64543l0.06709,0.26836v0.53359l0.12941,0.51766v0.94633l0.11233,0.56166l-0.02053,0.43122l0.10187,0.40749h2.34943l1.94629,-0.17694l1.94561,-0.19456l0.01989,0.00291l0.01898,-0.00662l2.05093,-0.18645l0.79846,-0.11407l0.76059,-0.28522l0.64402,-0.38641l0.33576,-0.10219l0.28452,-0.20549l0.81513,-0.32605l1.30317,-0.65158l1.27107,-0.72633l0.33882,-0.09529l0.28974,-0.19982l1.24589,-0.46721l0.56913,-0.32522l0.57207,-0.57207l0.20929,-0.12557l0.14792,-0.19414l0.51279,-0.41023l0.63288,-0.88603l0.09206,-0.07842l0.05039,-0.10994l0.49916,-0.62395l0.48569,-0.97138l0.25931,-1.55585l0.16408,-1.80489v-0.09274l-0.08229,-0.19201l-0.56527,-0.84791l-0.28326,-0.79313l-0.36053,-0.76112l-0.14358,-0.71791l-0.70068,-2.10204l-0.00741,-0.09627l-0.04825,-0.08364l-0.39301,-1.37553l-0.00831,-0.24937l-0.09948,-0.22881l-0.03557,-0.21345l-0.09542,-0.22662l-0.2564,-0.29913l-0.38416,-0.76831l-0.49916,-0.62395l-0.07992,-0.17436l-0.14192,-0.12902l-1.57203,-2.35804l-0.03555,-0.09953l-0.07473,-0.07473l-1.17902,-1.96504l-0.08681,-0.28524l-0.18041,-0.23738l-0.40807,-0.95217l-0.33442,-0.33442l-0.00787,-0.00525l-0.68471,-0.34235l-0.04831,0.00604l-0.09662,-0.0785l-0.10802,-0.05401l-0.27168,-0.23287l-0.08392,0.01678l-0.43122,-0.02053l-0.41882,0.10471h-5.5021l-0.21352,-0.05338l-0.21777,0.03187l-1.96504,-0.1965l-0.05175,-0.01858l-0.05458,0.00662l-1.54257,-0.19282l-1.24904,-0.13878z"/><path d="M317.0831,209.92932l-0.13442,0.16544l-0.78601,0.58951l-0.20971,0.0883l-0.1609,0.1609l-0.98252,0.58951l-0.04534,0.0138l-0.03422,0.0328l-1.24591,0.71195l-1.05481,0.70321l-0.14368,0.05131l-0.11015,0.10556l-1.37553,0.78601l-0.29352,0.08255l-0.24719,0.17852l-0.56349,0.2254l-0.80351,0.53567l-0.69855,0.24948l-0.6545,0.34907l-0.16029,0.04007l-0.42945,0.25767l-0.16259,0.04948l-0.12904,0.1106l-0.3753,0.18765l-0.62395,0.49916l-0.26867,0.12314l-0.20898,0.20898l-0.60851,0.36511l-0.00843,0.25298l-0.30117,1.0541l-0.15504,1.24032l-0.09594,0.24786v0.26578l-0.77218,3.08874l-0.38064,1.71287l-0.05915,0.1183l-0.00441,0.13219l-0.30117,1.0541l-0.09752,0.78013l0.00869,0.01549l-0.01803,0.05925l-0.04818,0.38545l-0.32339,0.83541l-0.26083,0.85701l-0.13917,0.23196l-0.26922,1.88455l-0.21581,0.52973l-0.09108,0.5647l-0.4527,1.0563l-0.30877,1.23509l-0.28037,0.52569l-0.16131,0.57353l-0.63671,1.11423l-0.28124,0.7031l-0.20549,0.28452l-0.10219,0.33576l-0.50387,0.83978l-0.31856,0.63713l-0.2564,0.29913l-0.15289,0.36311l-0.58951,0.78601l-0.17887,0.14534l-0.03333,0.16667l-0.7925,0.50432l-0.72905,0.59236l-0.16866,-0.02108l-0.19444,0.12374l-0.03884,0.01295l-0.10654,0.07103l-0.42698,0.15249l-0.36756,0.26546l-0.98252,0.39301l-0.81337,0.11091l-0.79639,0.1991h-5.5021l-0.35146,-0.08786l-0.36112,0.02889l-2.0042,-0.33403h-9.26995l-0.21352,-0.05338l-0.21777,0.03187l-1.96504,-0.1965l-0.13661,-0.04904l-0.14468,0.01157l-0.82518,-0.13753h-0.62379l-0.51766,-0.12941l-0.53359,0l-0.78601,-0.1965l-0.12579,-0.06709h-0.19848l-2.16721,-0.5418l-0.59106,-1.03435l-1.03435,-0.59106l-0.5418,-2.16721v-0.89621l-0.02701,-0.04051l0.02701,-0.12153v-0.12077l0.24155,-0.96619l0.21605,-0.97221l0.0393,-0.0786l0.1572,-0.70741l0.0393,-0.0786l0.1572,-0.70741l0.05401,-0.10802l0.03019,-0.12077l0.04227,-0.02415l0.07003,-0.14005l0.23031,-0.26869l0.012,-0.21591l0.34617,-0.29671l0.00104,-0.0047l0.39301,-0.78601l0.17825,-0.20796l0.09212,-0.25794l0.24332,-0.36498l0.07582,-0.15165l0.30009,-0.3501l0.19212,-0.41918l0.78601,-0.98252l0.19414,-0.14792l0.12557,-0.20929l0.08952,-0.08952l0.15493,-0.2324l0.09113,-0.08284l0.04779,-0.1135l0.58951,-0.78601l0.56957,-0.46278l0.49366,-0.54302l0.2324,-0.15493l0.06821,-0.06821l0.40469,-0.53958l0.03454,-0.02807l0.01225,-0.08776l0.86186,-0.62246l0.82511,-0.67041l0.08792,0.01099l0.03608,-0.02606l0.45025,-0.1801l0.3274,-0.24555l0.20971,-0.0883l0.1609,-0.1609l0.98252,-0.58951l0.04534,-0.0138l0.03422,-0.0328l1.37553,-0.78601l0.33882,-0.09529l0.28974,-0.19982l2.93105,-1.09914l1.36855,-0.68427l0.12723,-0.02827l0.10377,-0.07886l0.94487,-0.40495l0.99426,-0.71019l0.52919,-0.20847l0.46822,-0.32291l0.92547,-0.34705l0.44331,-0.35465l0.41918,-0.19212l0.3501,-0.30009l1.46442,-0.73221l1.19682,-0.6839l0.08541,-0.05338l-0.65399,0.14533l-0.47718,-0.01256l-0.46309,0.11577h-1.17902l-0.26572,-0.06643l-0.2719,0.03296l-1.30426,-0.16303h-1.49868l-0.79639,-0.1991l-0.81337,-0.11091l-1.69191,-0.67676l-0.50063,-0.12516l-0.6545,-0.34907l-0.69855,-0.24948l-0.10654,-0.07103l-0.03884,-0.01295l-0.2632,-0.16749l-0.30455,-0.06768l-0.4416,-0.2208c-0.48132,0.18437 -1.00389,0.28539 -1.55006,0.28539c-1.59083,0 -2.98149,-0.85702 -3.73547,-2.13455l-0.05715,-0.03266l-0.03102,-0.12408c-0.32595,-0.60872 -0.51078,-1.30434 -0.51078,-2.04312v-1.76853l0.10471,-0.41882l-0.02053,-0.43122l0.1828,-0.91398l0.05441,-0.32646l-0.23721,-1.18603l0.02053,-0.43122l-0.10471,-0.41882v-4.12658l0.07567,-0.30266l-0.0321,-0.31032l0.1965,-1.37553l0.01954,-0.04797l-0.00413,-0.05163l0.1965,-1.17902l0.25817,-0.59378l0.14046,-0.63206l0.18022,-0.36045l0.08111,-0.32442l0.22463,-0.42118l0.10355,-0.46598l0.39301,-0.78601l0.30009,-0.3501l0.19212,-0.41918l0.49916,-0.62395l0.38416,-0.76831l0.45344,-0.52902l0.35848,-0.59747l0.67903,-0.67903l0.54794,-0.82191l0.31944,-0.2904l0.22211,-0.37019l3.73357,-3.73357l0.20929,-0.12557l0.14792,-0.19414l0.79506,-0.63605l1.00927,-1.00927l0.09803,-0.05882l0.02564,-0.03443l2.16154,-1.76853l0.28885,-0.13625l0.02933,-0.02933l0.39735,-0.23841l0.23559,-0.18727l0.31564,-0.14347l0.03393,-0.02036l0.03286,-0.01l0.17813,-0.08097l0.08064,-0.06912l0.5499,-0.27495l0.28865,-0.28865l0.59747,-0.35848l0.52902,-0.45344l0.82945,-0.41472l0.41918,-0.31439l0.92965,-0.74372l0.41918,-0.19212l0.3501,-0.30009l0.54465,-0.27233l0.36498,-0.24332l0.25794,-0.09212l0.20796,-0.17825l1.31908,-0.65954l0.02415,-0.04227l0.12077,-0.03019l0.10802,-0.05401l0.97221,-0.21605l0.14176,-0.03544l0.03275,-0.05731l0.9472,-0.2368l0.22273,-0.07955l0.83046,-0.49828l0.2711,0.07394l0.16566,-0.13515l0.90385,0.33403h0.39823l1.85003,0.46251l0.08838,-0.00491l0.0216,0.03241l0.20719,0.0518l0.16968,0.29694l0.1385,0.03777l0.05625,0.20626l0.26358,0.09741l0.70327,1.61752l0.86294,1.29441l-0.04633,0.20848l0.01932,0.03382l-0.04392,0.07686l-0.25856,1.16353l0.07251,0.58004l-0.03296,0.2719l0.06643,0.26572l0,1.06749l0.34944,2.44611l-0.0321,0.31032l0.07567,0.30266v1.13546l0.563,5.06701l-0.00597,0.04416l0.01468,0.04208l0.1965,2.16154l-0.0308,0.19801l0.0486,0.19441l0,1.99932l0.33403,2.0042l-0.02889,0.36112l0.08786,0.35146v1.10567l0.16303,1.30426l-0.00368,0.03033l0.01064,0.02864l0.1965,1.76853l-0.03269,0.24187l0.0592,0.23678l0,3.03253l0.15294,1.07058l-0.0321,0.31032l0.07567,0.30266l0,0.48173l0.53192,-0.35461l0.42698,-0.15249l0.36756,-0.26546l0.7031,-0.28124l0.98462,-0.56264l1.05481,-0.70321l0.14368,-0.05131l0.11015,-0.10556l1.33549,-0.76314l0.75125,-0.45075l0.36071,-0.27053l0.3717,-0.3717l0.02112,-0.01267l0.02143,-0.07618l0.94989,-0.50661l0.71291,-0.42775l0.13442,-0.16544l0.78601,-0.58951l0.20971,-0.0883l0.1609,-0.1609l0.07977,-0.04786c0.30565,1.20825 0.5076,2.40205 0.70749,3.26045c0.44146,1.89581 0.98732,3.7928 1.6081,5.66248zM290.93747,185.94109l-0.08037,0.01786l-0.06445,0.05123l-1.22712,0.55778l-0.0465,0.062l-0.77296,0.62803l-0.75617,0.64814l-0.10802,0.05401l-0.09662,0.0785l-0.04831,-0.00604l-0.11816,0.05908l-0.89697,1.15325l-0.11444,0.0897l-0.06736,0.12886l-1.19117,1.34006l-1.27977,2.55954l-0.94932,2.08849l-0.09282,0.11678l-0.03676,0.14457l-1.11839,2.07702l-0.65447,2.61789l-0.0559,0.10482l-0.00635,0.11862l-0.78601,2.55455l-0.05772,0.09554l-0.01157,0.11102l-0.73347,2.01705l0.57342,0.57342l0.20831,0.06944l0.48843,0.31082l0.40842,0.14586l0.15927,0.03982l0.26308,0.14031l0.29543,0.04029l1.19001,0.476h0.9338l0.26572,0.06643l0.2719,-0.03296l1.30426,0.16303l0.43337,0l1.08579,-0.24129l1.35791,-0.45264l1.37729,-0.61213l0.99506,-0.56861l0.60923,-0.43517l0.36496,-0.51094l0.22464,-0.44927l0.27761,-1.11044l0.03489,-0.06541l0.00247,-0.07409l0.39301,-1.37553l0.04825,-0.08364l0.00741,-0.09627l0.45379,-1.36137l0.13959,-1.11669l0.16671,-1.50043v-1.72497l0.0486,-0.19441l-0.0308,-0.19801l0.1787,-1.96573v-4.16075l-0.13753,-0.82518l0.02889,-0.36112l-0.08786,-0.35146l0,-0.55333l-0.11233,-0.56166l0.02053,-0.43122l-0.10471,-0.41882v-1.04342zM291.13397,224.25931l-1.16132,0.58066l-0.62395,0.49916l-0.62227,0.28521l-0.5635,0.38862l-1.03839,0.3894l-0.91175,0.65125l-0.43752,0.17236l-0.37439,0.28454l-1.25845,0.53934l-1.4581,0.72905l-0.22595,0.05021l-0.19054,0.13141l-2.81792,1.05672l-1.03307,0.59033l-0.75125,0.45075l-0.60714,0.45535l-0.52718,0.22197l-0.43757,0.31602l-0.14303,0.23839l-0.58951,0.58951l-0.37019,0.22211l-0.20969,0.23066l-0.12431,0.16575l-0.32627,0.48941l-0.31944,0.2904l-0.22211,0.37019l-0.22326,0.22326l-0.15213,0.19016l0.47423,0.04742h9.4125l0.35146,0.08786l0.36112,-0.02889l2.0042,0.33403h4.22403l0.08708,-0.05805l0.05998,-0.02142l0.03954,-0.07907l0.1106,-0.12904l0.04948,-0.16259l0.41082,-0.68471l0.26402,-0.66005l0.17852,-0.24719l0.08255,-0.29352l0.48936,-0.85638l0.24799,-0.99195l0.16516,-0.30967l0.05588,-0.34649l0.36369,-0.84861l0.23723,-1.66062l-0.0016,-0.00286l0.00379,-0.01246l0.07251,-0.5076l0.32405,-0.7954l0.25007,-0.82166l0.11878,-0.19797l0.08302,-0.66416l0.12204,-0.31526l0.01126,-0.33787l0.35749,-1.25123l0.22263,-1.00185l-0.46527,0.20679l-1.31363,0.82102l-0.08344,0.02706l-0.06333,0.06069l-1.37553,0.78601l-0.11856,0.03334z"/><path d="M314.91726,194.94808l-0.11233,-0.56166l0.02053,-0.43122l-0.10471,-0.41882v-2.2847l-0.16303,-1.30426l0.00368,-0.03033l-0.01064,-0.02864l-0.14579,-1.31215l-0.2478,-0.7434l-0.03537,-0.45975l-0.16055,-0.43226l-0.1965,-1.76853l0.00328,-0.02429l-0.00828,-0.02307l-0.1965,-1.96504l0.03187,-0.21777l-0.05338,-0.21352v-11.00421l0.0486,-0.19441l-0.0308,-0.19801l0.1965,-2.16154l0.1446,-0.41452l0.0204,-0.43854l0.46404,-1.54681l0.15697,-1.7267l0.07757,-0.22238l-0.0112,-0.23525l0.39301,-1.96504l0.11725,-0.24753l0.02101,-0.27309l0.48197,-1.4459l0.3371,-2.02259l0.21964,-0.50518l0.09496,-0.54262l1.57203,-3.53707l0.63852,-0.8173l0.067,-0.33498l0.38721,-0.24641l0.28256,-0.36168l0.33988,-0.03442l0.87501,-0.55682l1.17902,-0.39301l2.22733,-0.17133l0.12755,0.11412l0.16512,-0.04503l1.91556,1.14934l0.58951,0.58951l0.25454,0.42424l0.35614,0.34342l0.98252,1.57203l0.1348,0.41563l0.24806,0.35969l1.16248,3.09995l0.76852,1.9213l0.05928,0.43469l0.18082,0.39971l0.39301,2.16154l-0.00213,0.03272l0.01307,0.03007l0.39301,2.35804l-0.00222,0.02779l0.0108,0.0257l0.39301,2.55455l-0.03091,0.33383l0.08131,0.32525v4.91259l-0.04461,0.17843l0.02964,0.18152l-0.1965,2.35804l-0.05847,0.17176l0.01447,0.18086l-0.39301,2.35804l-0.01307,0.03007l0.00213,0.03272l-0.39301,2.16154l-0.02865,0.06334l0.00236,0.06948l-0.58951,2.75105l-0.05391,0.1099l-0.0026,0.12238l-0.56237,2.06203l-0.37063,1.66785l-0.05915,0.1183l-0.00441,0.13219l-0.39301,1.37553l-0.15376,0.26652l-0.05304,0.30309l-0.54124,1.21778l-0.11127,0.77888l-0.08585,0.21073l0,0.22754l-0.39301,1.57203l-0.07998,0.14996l-0.01303,0.16945l-0.28546,0.85639l-0.14059,0.84357l-0.02861,0.0658l0.00341,0.07167l-0.1965,0.98252l-0.11725,0.24753l-0.02101,0.27309l-0.39301,1.17902l-0.16749,0.2632l-0.06768,0.30455l-0.25525,0.5105l-0.6886,2.06581l-0.31082,0.48843l-0.04249,0.11898l0.10679,-0.00821l0.06461,-0.01615l0.14537,0l0.35769,-0.02751l0.67596,-0.16899h5.1091l0.82957,0.20739l0.31976,-0.08721l0.47757,0.28654l0.54031,0.13508l0.10757,0.18825l0.74151,0.18538l0.6545,0.34907l0.69855,0.24948l0.10654,0.07103l0.03884,0.01295l0.84023,0.53469l0.854,0.5124l0.0854,0.0854l0.10503,0.06684l0.00955,0.04774l1.37205,1.37205l0.18639,0.31065l0.27578,0.23492l0.84837,1.18772l1.4187,1.59604l0.17072,0.32659l0.26528,0.2558l0.91168,1.45869l0.90484,1.26677l0.16188,0.41092l0.2719,0.34804l0.78601,1.76853l0.05304,0.30309l0.15376,0.26652l0.17313,0.60594l0.10928,0.14571l0.37216,0.88388l0.41055,0.86672l0.04127,0.20636l0.0429,0.10189l-0.0154,0.03561l0.1075,0.53752l0.15397,0.61589l0.37317,1.30608l0.02014,0.60424l0.14663,0.58652v0.25242l0.06709,0.26836l0,0.53359l0.12941,0.51766l0,0.35682l0.11233,0.56166l-0.02053,0.43122l0.10471,0.41882v1.37553l-0.5418,2.16721l-3.79261,2.16721l-3.79261,-2.16721l-0.5418,-2.16721l0,-0.94633l-0.11233,-0.56166l0.02053,-0.43122l-0.10471,-0.41882v-0.25242l-0.06709,-0.26836l0,-0.53359l-0.12941,-0.51766l0,-0.17896l-0.22624,-0.79183l-0.00247,-0.07409l-0.03489,-0.06541l-0.1965,-0.78601v-0.10569l-0.04524,-0.09551l-0.00384,-0.01922l-0.30549,-0.72553l-0.39409,-0.68308l-0.30956,-1.08347l-0.48423,-1.08951l-0.72717,-1.01803l-0.05011,-0.1272l-0.09841,-0.0949l-0.78905,-1.26247l-1.32951,-1.4957l-0.10876,-0.20806l-0.17872,-0.15224l-0.77401,-1.08362l-0.82111,-0.82111l-0.28938,-0.10335l-0.94528,-0.23632l-0.02174,-0.01159l-0.07635,0.02082l-0.4547,-0.27282l-3.05644,0l-0.12844,0.64221l-0.36053,0.76112l-0.15181,0.42508l-0.1895,0.94749v9.1633l0.11233,0.56166l-0.02053,0.43122l0.10471,0.41882v1.82445l0.06709,0.26836v0.33709l0.21742,0.86968l0.32838,0.91947l-0.06568,0.13135l0.0423,0.16918v0.42729l0.13753,0.82518l-0.02889,0.36112l0.08786,0.35146v1.17902l-0.12941,0.51766l0,0.665l-0.21863,0.20952l-0.19376,0.77503l-1.52323,0.87042l-1.21813,1.16737l-0.55273,-0.15545l-0.49852,0.28487l-1.46489,-0.83708l-1.68886,-0.47499l-0.37595,-0.7049l-0.26292,-0.15024l-0.16129,-0.64514l-0.2511,-0.47082l-0.1965,-0.78601l0,-0.53359l-0.12941,-0.51766v-0.90679l-0.15146,-0.68156l-0.24155,-0.96619l0,-0.027l-0.02338,-0.06546l0.0095,-0.01899l-0.24971,-0.99883v-0.53359l-0.12941,-0.51766l0,-0.55333l-0.11233,-0.56166l0.02053,-0.43122l-0.10471,-0.41882v-0.73489l-0.02751,-0.35769l-0.16899,-0.67596v-0.59149l-0.06709,-0.12579l-0.15613,-0.62452l-0.34037,-1.0211l-0.05344,-0.69471l-0.16899,-0.67596l0,-0.52282l-0.17058,-0.26805l-0.1965,-0.58951l-0.02101,-0.27309l-0.11725,-0.24753l-0.1965,-0.98252l0.02053,-0.43122l-0.10471,-0.41882l0,-5.35095l-0.58472,0.2462l-0.58783,0.37407l-0.23535,0.07845l-0.30305,0.20203l-0.79313,0.28326l-0.31231,0.14794l-0.72089,0.65535l-0.06628,-0.00457l-1.52083,0.76042l-0.17954,0.0399l-0.1491,0.10769l-0.66005,0.26402l-0.49297,0.29578l-0.36071,0.27053l-0.3717,0.3717l-0.02112,0.01267l-0.02143,0.07618l-0.94989,0.50661l-0.09224,0.05534c-0.60142,-1.82076 -1.13082,-3.66703 -1.56049,-5.51226c-0.22159,-0.95162 -0.43875,-2.17891 -0.76307,-3.40589l0.47136,-0.28281l0.33576,-0.10219l0.28452,-0.20549l0.81513,-0.32605l0.73583,-0.36791l0.03264,-0.02967l0.10481,-0.31443l0.50332,-0.23842l0.4121,-0.37463l0.33066,0.0228l0.77279,-0.36606l0.30205,-0.06041l0.18162,-0.15568l0.39301,-0.1965l0.29982,-0.06663l0.41347,-0.3101l0.36311,-0.15289l0.29913,-0.2564l0.14005,-0.07003l0.02415,-0.04227l0.12077,-0.03019l0.10802,-0.05401l0.70741,-0.1572l0.27511,-0.2358l0.53306,-0.26653l0.02415,-0.04227l0.12077,-0.03019l0.10802,-0.05401l0.65753,-0.14612l0.13676,-0.21491l0.15027,-0.03005zM322.46643,180.70766l0.37519,-2.06357l0.35853,-2.1512l0.16676,-2.00117v-4.40084l-0.33849,-2.20016l-0.02627,-0.15763l-0.02338,0.2572l-0.1446,0.41452l-0.0204,0.43854l-0.46404,1.54681l-0.13917,1.53089v9.98061z"/></g></g></svg>